# xmcd CD database file
#
# Track frame offsets:
#	150
#	20552
#	43821
#	63001
#	79811
#	93503
#	109723
#	134129
#	151330
#	162918
#	177876
#	193940
#	206699
#	218738
#	234091
#
# Disc length: 3405 seconds
#
# Revision: 0
# Processed by: cddbd v1.5.1PL0 Copyright (c) Steve Scherf et al.
# Submitted via: CDex 1.51
#
DISCID=cc0d4b0f
DTITLE=Los Cuatro De Belen - Del Sentimiento Al Son Cd 1
DYEAR=1900
DGENRE=Salsa
TTITLE0=Yolanda
TTITLE1=Mosaico Sentimental 1
TTITLE2=Im'agenes
TTITLE3=Como Fue
TTITLE4=Canción A La Habana
TTITLE5=Mosaico Sentimental 2
TTITLE6=Tu Mi Delirio
TTITLE7=Novia Mia
TTITLE8=Noche Cubana
TTITLE9=Mosaico Sentimental 3
TTITLE10=Realidad Y Fantasia
TTITLE11=Amame
TTITLE12=Pensamiento
TTITLE13=La Gloria Eres Tu
TTITLE14=Total
EXTD=
EXTT0=
EXTT1=
EXTT2=
EXTT3=
EXTT4=
EXTT5=
EXTT6=
EXTT7=
EXTT8=
EXTT9=
EXTT10=
EXTT11=
EXTT12=
EXTT13=
EXTT14=
PLAYORDER=
